<svg width="29" height="28" viewBox="0 0 29 28" fill="none" xmlns="http://www.w3.org/2000/svg">
<path d="M14.6667 26.9998C11.7372 23.7744 7.76429 21.6854 3.4467 21.0998C2.95526 21.0454 2.50139 20.8108 2.17267 20.4416C1.84395 20.0722 1.6637 19.5942 1.6667 19.0998V2.99976C1.66668 2.71088 1.72924 2.42542 1.85008 2.16302C1.97092 1.90063 2.14717 1.66753 2.3667 1.47976C2.58236 1.2954 2.83479 1.15904 3.10721 1.07973C3.37961 1.00042 3.66578 0.979976 3.9467 1.01976C8.07528 1.70497 11.8521 3.76252 14.6667 6.85976V26.9998Z" stroke="#757575" stroke-width="2" stroke-linecap="round" stroke-linejoin="round"/>
<path d="M14.6667 26.9998C17.5962 23.7744 21.5691 21.6854 25.8867 21.0998C26.3781 21.0454 26.8321 20.8108 27.1607 20.4416C27.4895 20.0722 27.6697 19.5942 27.6667 19.0998V2.99976C27.6667 2.71088 27.6041 2.42542 27.4833 2.16302C27.3625 1.90063 27.1863 1.66753 26.9667 1.47976C26.7511 1.2954 26.4987 1.15904 26.2263 1.07973C25.9537 1.00042 25.6677 0.979976 25.3867 1.01976C21.2581 1.70497 17.4812 3.76252 14.6667 6.85976V26.9998Z" stroke="#757575" stroke-width="2" stroke-linecap="round" stroke-linejoin="round"/>
</svg>
