<svg width="21" height="22" viewBox="0 0 21 22" fill="none" xmlns="http://www.w3.org/2000/svg">
<path d="M17.25 8C17.25 12.5 10.5 17.75 10.5 17.75C10.5 17.75 3.75 12.5 3.75 8C3.75 4.3235 6.8235 1.25 10.5 1.25C14.1765 1.25 17.25 4.3235 17.25 8Z" stroke="#373740" stroke-width="1.5" stroke-linecap="round" stroke-linejoin="round"/>
<path d="M10.5 10.25C11.7426 10.25 12.75 9.24264 12.75 8C12.75 6.75736 11.7426 5.75 10.5 5.75C9.25736 5.75 8.25 6.75736 8.25 8C8.25 9.24264 9.25736 10.25 10.5 10.25Z" stroke="#373740" stroke-width="1.5" stroke-linecap="round" stroke-linejoin="round"/>
<path d="M16.616 15.5H18L20.25 20.75H0.75L3 15.5H4.38405" stroke="#373740" stroke-width="1.5" stroke-linecap="round" stroke-linejoin="round"/>
</svg>
