<svg width="71" height="71" viewBox="0 0 71 71" fill="none" xmlns="http://www.w3.org/2000/svg">
<g clip-path="url(#clip0_71_1177)">
<path d="M54.725 0H16.275C7.28657 0 0 7.28657 0 16.275V54.725C0 63.7134 7.28657 71 16.275 71H54.725C63.7134 71 71 63.7134 71 54.725V16.275C71 7.28657 63.7134 0 54.725 0Z" fill="#D3D04E"/>
<path d="M53.7398 21.6239C50.5616 15.5069 36.6132 10.375 27.4237 13.3807C18.2342 16.3808 10.9149 14.4215 10.9149 14.4215C10.9149 14.4215 22.2084 34.5482 49.6655 28.4312C51.5245 28.0193 56.534 27.0063 53.7398 21.6239Z" fill="#17594A"/>
<path d="M21.0729 18.8075C23.6722 18.8242 26.2437 18.5459 28.7763 18.1174C31.3756 17.7222 33.9304 16.6201 36.5854 17.0487C41.8619 17.8391 46.5597 20.572 50.6451 23.8281C45.6691 21.1787 38.5056 17.0598 32.7782 18.3233C28.9544 19.1638 24.9357 19.4977 21.0729 18.8075Z" fill="#F6F6F6"/>
<path d="M49.1812 59.8958H23.6945C23.0433 59.8958 22.4755 59.445 22.3364 58.8049L15.095 26.1268C14.928 25.3754 15.4011 24.6352 16.1526 24.4682C16.904 24.3012 17.6442 24.7743 17.8112 25.5257L24.8133 57.1128H48.0847L55.276 26.7725L52.5264 25.9209C51.7917 25.6927 51.3798 24.9135 51.608 24.1787C51.8362 23.444 52.6155 23.0377 53.3502 23.2604L57.341 24.5016C58.0423 24.7186 58.4487 25.4422 58.2817 26.1491L50.5338 58.8271C50.3835 59.4561 49.8269 59.8958 49.1812 59.8958Z" fill="#17594A"/>
</g>
<defs>
<clipPath id="clip0_71_1177">
<rect width="71" height="71" fill="white"/>
</clipPath>
</defs>
</svg>
